<?xml version="1.0" encoding="UTF-8" standalone="no"?>
<!-- Created with Inkscape (http://www.inkscape.org/) -->

<svg
   xmlns:dc="http://purl.org/dc/elements/1.1/"
   xmlns:cc="http://creativecommons.org/ns#"
   xmlns:rdf="http://www.w3.org/1999/02/22-rdf-syntax-ns#"
   xmlns:svg="http://www.w3.org/2000/svg"
   xmlns="http://www.w3.org/2000/svg"
   xmlns:sodipodi="http://sodipodi.sourceforge.net/DTD/sodipodi-0.dtd"
   xmlns:inkscape="http://www.inkscape.org/namespaces/inkscape"
   version="1.1"
   id="svg815"
   width="797.5069"
   height="786.08301"
   viewBox="0 0 797.5069 786.08301"
   sodipodi:docname="lightbulb.svg"
   inkscape:version="0.92.4 (5da689c313, 2019-01-14)">
  <metadata
     id="metadata821">
    <rdf:RDF>
      <cc:Work
         rdf:about="">
        <dc:format>image/svg+xml</dc:format>
        <dc:type
           rdf:resource="http://purl.org/dc/dcmitype/StillImage" />
        <dc:title></dc:title>
      </cc:Work>
    </rdf:RDF>
  </metadata>
  <defs
     id="defs819" />
  <sodipodi:namedview
     pagecolor="#ffffff"
     bordercolor="#666666"
     borderopacity="1"
     objecttolerance="10"
     gridtolerance="10"
     guidetolerance="10"
     inkscape:pageopacity="0"
     inkscape:pageshadow="2"
     inkscape:window-width="2560"
     inkscape:window-height="1377"
     id="namedview817"
     showgrid="false"
     inkscape:zoom="1.3303965"
     inkscape:cx="399.9025"
     inkscape:cy="439.18334"
     inkscape:window-x="-8"
     inkscape:window-y="-8"
     inkscape:window-maximized="1"
     inkscape:current-layer="svg815" />
  <path
     style="opacity:1;fill:#006cb7;fill-opacity:1"
     d="m 378.89919,784.9445 c -15.96258,-4.12527 -25.36677,-15.03886 -30.50469,-35.40079 l -1.0724,-4.25 h -12.56032 c -9.51715,0 -13.38915,-0.3933 -15.98115,-1.62329 -5.03036,-2.38706 -7.7113,-6.75537 -8.16948,-13.31131 -0.45727,-6.54281 1.99198,-11.10446 7.79144,-14.51133 3.27416,-1.9234 4.88055,-2.03965 25.25109,-1.82743 29.32784,0.30554 30.1333,0.77991 33.80842,19.91105 3.64579,18.9784 5.21476,20.90545 16.93709,20.80245 7.81022,-0.0686 10.75954,-1.07135 12.36714,-4.20463 1.4616,-2.8487 4.07813,-14.29479 5.13901,-22.48076 0.68767,-5.30624 3.94421,-9.90204 8.79334,-12.40962 2.48954,-1.2874 7.10525,-1.60751 24.71491,-1.71408 l 21.65366,-0.13105 4.12413,2.857 c 9.71087,6.72725 9.33214,19.50936 -0.78202,26.393 -3.00365,2.04427 -4.47756,2.25 -16.11951,2.25 h -12.81357 l -1.09055,4.25 c -4.74672,18.49854 -12.53161,28.62373 -26.10899,33.95791 -6.72257,2.64111 -27.46718,3.48718 -35.37755,1.44288 z m -62.86016,-86.24956 c -9.17797,-6.23659 -8.85005,-20.64425 0.60102,-26.40663 3.17427,-1.93538 5.18222,-1.98722 77.10801,-1.99086 66.432,-0.003 74.19659,0.16126 77.31107,1.63918 10.6531,5.05523 11.29939,21.14335 1.0992,27.36248 -3.17497,1.9358 -5.18366,1.98722 -77.77701,1.99086 l -74.51786,0.004 z m -3.18175,-42.28114 c -2.22305,-1.00979 -4.88146,-3.11729 -5.90758,-4.68334 -1.68754,-2.57551 -5.07655,-18.37371 -14.46521,-67.43094 -5.54054,-28.95023 -13.67515,-44.50856 -44.96775,-86.00581 -28.83927,-38.24386 -39.46664,-55.85993 -46.55771,-77.17462 -6.12338,-18.40599 -7.06576,-24.90387 -7.00852,-48.32538 0.0562,-23.00676 1.25444,-32.32344 6.61823,-51.45969 12.51291,-44.64199 42.92464,-84.03003 84.0685,-108.88209 46.07254,-27.82914 106.86761,-37.02915 162.50378,-24.59143 66.43921,14.85279 118.22302,58.12218 141.13072,117.92569 15.4628,40.3676 16.9488,86.44709 4.0476,125.50752 -3.9691,12.01673 -11.9455,28.88226 -19.1665,40.52596 -3.0787,4.96428 -13.21,19.74335 -22.51413,32.84238 -25.3632,35.70831 -36.37989,54.35019 -46.75855,79.12244 -4.95722,11.83213 -12.51748,40.26067 -14.81085,55.69261 -1.60966,10.8313 -3.59611,14.60455 -9.05156,17.19332 -3.0687,1.4562 -11.63997,1.62103 -83.26969,1.60133 -75.30992,-0.0207 -80.07863,-0.12633 -83.89078,-1.85795 z m 150.98574,-50.62009 c 6.14648,-24.28279 8.95922,-31.87769 20.18386,-54.5 10.00284,-20.1599 19.49352,-35.32856 40.5527,-64.81411 23.85574,-33.4011 30.71392,-45.24578 37.16426,-64.18589 12.2734,-36.03857 9.3435,-79.36307 -7.82467,-115.70164 -7.36905,-15.59754 -16.6325,-28.46442 -30.4918,-42.35299 -28.13798,-28.19735 -61.9759,-43.92875 -105.49903,-49.04695 -13.98043,-1.64407 -41.93159,-0.61947 -56.52915,2.07216 -21.00114,3.87239 -46.96622,13.92259 -63.8912,24.73013 -35.5654,22.71048 -59.91715,57.7207 -69.22846,99.52887 -2.98974,13.42408 -3.75634,42.32037 -1.4294,53.88006 2.33913,11.6202 5.91317,21.68394 11.7924,33.2049 6.91137,13.54353 12.41913,21.73038 31.7443,47.18546 28.81332,37.95283 39.63982,56.10218 47.42358,79.5 3.38551,10.1768 4.56639,15.5402 11.72182,53.2391 l 3.36696,17.73909 50,0.26091 c 27.5,0.14349 55.76637,0.2609 62.81415,0.2609 h 12.81415 z"
     id="path825"
     inkscape:connector-curvature="0"
     sodipodi:nodetypes="sscscccssccscsccsscssscccsscccscssscsssscccsscssssscssssssssssscsscs" />
  <path
     style="opacity:1;fill:#ebc46a;fill-opacity:1;stroke:none;stroke-width:0.75165564"
     d="m 661.85449,408.31191 c -5.18735,-0.5633 -6.98426,-1.41168 -9.61695,-4.54045 -6.48484,-7.7068 -5.07992,-17.21597 3.41284,-23.09966 l 3.07083,-2.12743 h 63.57823 c 63.02111,0 63.60457,0.0138 66.58485,1.57025 8.32347,4.34706 10.69762,17.07029 4.42941,23.73748 -4.69919,4.9983 -1.24261,4.74859 -67.19266,4.85402 -32.86614,0.0525 -61.78609,-0.12485 -64.26655,-0.39421 z"
     id="path833"
     inkscape:connector-curvature="0" />
  <path
     style="opacity:1;fill:#ebc46a;fill-opacity:1;stroke:none;stroke-width:0.75165564"
     d="m 576.04905,221.02861 c -3.62099,-1.79238 -6.60728,-5.90353 -7.8377,-10.78999 -1.69504,-6.7316 -1.33343,-7.30246 16.15675,-25.50591 8.7997,-9.15855 29.27,-29.75339 45.48956,-45.76631 31.95162,-31.54453 31.71791,-31.36198 38.79288,-30.30102 6.45785,0.96841 11.60545,5.97117 13.11301,12.74404 1.39801,6.28068 -0.39593,8.83434 -21.77695,30.99924 -25.12567,26.04685 -68.19938,67.8733 -71.20648,69.1446 -3.54726,1.49967 -9.10414,1.27066 -12.73107,-0.52465 z"
     id="path835"
     inkscape:connector-curvature="0" />
  <path
     style="opacity:1;fill:#ebc46a;fill-opacity:1;stroke:none;stroke-width:0.75165564"
     d="m 386.36228,147.19309 c -4.69356,-2.48202 -6.05239,-4.71104 -6.79822,-11.1518 -0.35305,-3.04881 -0.65676,-32.69463 -0.67491,-65.879609 l -0.033,-60.33633 3.94619,-4.050752 c 4.39705,-4.513554 8.4769,-6.134947 13.36087,-5.309806 3.76392,0.635911 8.13155,3.54492 10.69211,7.12137 l 2.06706,2.88714 v 64.574906 64.574901 l -2.71156,3.16784 c -5.31707,6.2118 -13.14383,7.94767 -19.84853,4.40214 z"
     id="path837"
     inkscape:connector-curvature="0" />
  <path
     style="opacity:1;fill:#ebc46a;fill-opacity:1;stroke:none;stroke-width:0.75165564"
     d="m 202.21707,227.3275 c -3.95858,-1.96741 -85.48012,-83.73485 -89.31708,-89.5865 -3.7522,-5.72239 -3.93292,-8.03397 -1.06951,-13.68003 3.94194,-7.7727 11.91341,-11.44153 18.05358,-8.30905 1.60919,0.82095 6.11192,4.34993 10.00606,7.84218 11.76273,10.54876 79.90054,79.54348 82.4765,83.51373 3.14003,4.83964 3.18252,8.4418 0.16174,13.70875 -3.24406,5.65626 -5.99141,7.3385 -12.41559,7.60225 -3.83838,0.1576 -5.97772,-0.1381 -7.8957,-1.09133 z"
     id="path839"
     inkscape:connector-curvature="0" />
  <path
     style="opacity:1;fill:#ebc46a;fill-opacity:1;stroke:none;stroke-width:0.75165564"
     d="m 12.424023,418.05895 c -3.9107349,-0.66444 -5.6812507,-1.67883 -8.4659606,-4.85044 -6.1550961,-7.01027 -3.77442095,-18.96939 4.7076825,-23.64864 2.0335171,-1.12181 8.0495711,-1.26759 61.2599341,-1.48439 32.452731,-0.13222 61.437411,-0.0207 64.410411,0.24792 4.24157,0.38318 5.9635,0.92047 7.99726,2.49537 8.30212,6.429 9.25126,16.73049 2.17788,23.63746 -2.35711,2.30166 -3.73554,2.96875 -7.36125,3.56248 -5.02712,0.82322 -119.899393,0.86028 -124.725957,0.0402 z"
     id="path841"
     inkscape:connector-curvature="0" />
  <path
     style="opacity:1;fill:#ebc46a;fill-opacity:1;stroke:none;stroke-width:0.75165564"
     d="m 125.5482,686.21585 c -8.68762,-2.4687 -13.09359,-12.91461 -8.91356,-21.13272 2.00906,-3.9499 84.28202,-86.40929 89.65749,-89.86066 9.15029,-5.87502 21.00791,-0.15804 22.67073,10.93036 1.11619,7.44332 2.64228,5.64253 -45.89436,54.15533 -29.7528,29.73818 -45.454,44.91001 -47.25633,45.66307 -3.03675,1.26884 -6.37931,1.3485 -10.26397,0.24462 z"
     id="path843"
     inkscape:connector-curvature="0" />
  <path
     style="opacity:1;fill:#ebc46a;fill-opacity:1;stroke:none;stroke-width:0.75165564"
     d="m 669.99792,678.30859 c -0.89546,-0.17461 -4.27791,-2.5588 -7.51656,-5.29821 -7.24624,-6.12922 -78.0754,-76.93038 -83.51074,-83.47772 -3.88444,-4.67914 -3.93221,-4.79823 -3.91999,-9.77152 0.0159,-6.45442 1.9687,-10.11718 7.07841,-13.27627 2.97581,-1.8398 4.5167,-2.28156 7.95822,-2.28156 4.01533,0 4.53035,0.21981 8.70299,3.71446 5.77019,4.83262 81.56635,80.62666 86.39521,86.3928 3.53769,4.22435 3.69594,4.60773 3.6013,8.72472 -0.16258,7.07184 -2.542,10.51579 -9.64419,13.95885 -3.58852,1.73967 -5.53166,2.01897 -9.14465,1.31445 z"
     id="path845"
     inkscape:connector-curvature="0" />
</svg>
