<?xml version="1.0" encoding="UTF-8" standalone="no"?>
<!-- Created with Inkscape (http://www.inkscape.org/) -->

<svg
   xmlns:dc="http://purl.org/dc/elements/1.1/"
   xmlns:cc="http://creativecommons.org/ns#"
   xmlns:rdf="http://www.w3.org/1999/02/22-rdf-syntax-ns#"
   xmlns:svg="http://www.w3.org/2000/svg"
   xmlns="http://www.w3.org/2000/svg"
   xmlns:sodipodi="http://sodipodi.sourceforge.net/DTD/sodipodi-0.dtd"
   xmlns:inkscape="http://www.inkscape.org/namespaces/inkscape"
   version="1.1"
   id="svg862"
   width="424.66971"
   height="423.668"
   viewBox="0 0 424.66971 423.668"
   sodipodi:docname="closebuttonhover.svg"
   inkscape:version="0.92.4 (5da689c313, 2019-01-14)">
  <metadata
     id="metadata868">
    <rdf:RDF>
      <cc:Work
         rdf:about="">
        <dc:format>image/svg+xml</dc:format>
        <dc:type
           rdf:resource="http://purl.org/dc/dcmitype/StillImage" />
        <dc:title></dc:title>
      </cc:Work>
    </rdf:RDF>
  </metadata>
  <defs
     id="defs866" />
  <sodipodi:namedview
     pagecolor="#ffffff"
     bordercolor="#666666"
     borderopacity="1"
     objecttolerance="10"
     gridtolerance="10"
     guidetolerance="10"
     inkscape:pageopacity="0"
     inkscape:pageshadow="2"
     inkscape:window-width="2560"
     inkscape:window-height="1377"
     id="namedview864"
     showgrid="false"
     inkscape:zoom="1"
     inkscape:cx="296.37548"
     inkscape:cy="396.13113"
     inkscape:window-x="-8"
     inkscape:window-y="-8"
     inkscape:window-maximized="1"
     inkscape:current-layer="svg862"
     fit-margin-top="0"
     fit-margin-left="0"
     fit-margin-right="0"
     fit-margin-bottom="0" />
  <path
     style="fill:#006cb7;fill-opacity:1;stroke-width:1.53768098"
     d="M 31.343144,422.71224 C 23.929364,420.9309 12.898421,413.95927 8.5824012,408.32728 -0.50813705,396.46501 0.00528876,408.23778 0.00528876,211.65485 V 31.258279 L 3.9368315,22.986751 C 8.1373689,14.149289 13.53274,8.800504 23.716053,3.378315 L 30.060803,0 H 212.70585 395.35091 l 8.20522,4.523887 c 8.96861,4.94476 15.49533,12.145728 19.35917,21.359 2.24593,5.355439 2.49112,23.671972 2.49112,186.100033 v 180.15996 l -3.93154,8.27152 c -4.20054,8.83747 -9.59591,14.18626 -19.77922,19.60845 l -6.34475,3.37831 -179.56245,0.24215 c -98.75933,0.13316 -181.759725,-0.2858 -184.445316,-0.93107 z M 385.3324,211.70058 V 40.652647 H 212.70585 40.079308 V 211.70058 382.74851 H 212.70585 385.3324 Z"
     id="path1417"
     inkscape:connector-curvature="0" />
  <path
     style="fill:#006cb7;fill-opacity:1;stroke-width:0.25"
     d=""
     id="path1423"
     inkscape:connector-curvature="0" />
  <path
     style="fill:#006cb7;fill-opacity:1;stroke-width:0.25"
     d="m 257.69591,315.58926 c -30.46459,-30.36748 -42.33493,-41.61721 -43.94502,-41.64745 -1.58691,-0.0298 -12.9954,10.75388 -43.56728,41.1813 -12.19199,12.13437 -22.27723,22.0625 -22.41163,22.0625 -1.0579,0 -23.98622,-21.65841 -56.811067,-53.66453 l -3.63007,-3.53952 3.00559,-3.08548 c 46.023767,-47.247 61.869407,-63.81092 61.869407,-64.67394 0,-0.29573 -3.52303,-4.49224 -6.53691,-7.78653 -4.77337,-5.2175 -9.56549,-10.12597 -33.79127,-34.61169 L 87.898273,145.58723 114.36455,119.19291 c 14.55646,-14.51688 27.95872,-27.77612 29.78281,-29.46497 l 3.31652,-3.07065 0.73294,0.5219 c 1.13323,0.80693 20.18163,19.93524 37.22525,37.38142 8.46262,8.6625 18.28034,18.69312 21.81715,22.29026 l 6.43057,6.54026 5.72321,-5.79026 c 3.14777,-3.18464 12.81713,-13.04651 21.48746,-21.91526 17.06795,-17.45854 37.87255,-38.24533 38.73891,-38.70574 0.48858,-0.25965 0.84794,-0.004 3.875,2.76071 1.83506,1.6758 15.20385,14.88475 29.70842,29.35323 l 26.37195,26.30633 -1.86337,1.95523 c -1.02484,1.07538 -11.49232,11.68649 -23.26107,23.58024 -26.52418,26.8059 -31.94781,32.41141 -36.79691,38.03091 -2.80795,3.25406 -2.73775,2.95823 -1.13508,4.78275 3.10078,3.53002 12.60192,13.54155 32.43753,34.18005 21.54219,22.41416 30,31.4079 30,31.90094 0,1.00097 -3.34542,4.48902 -16.74114,17.45487 -5.83887,5.65152 -15.95277,15.50673 -22.47532,21.90048 -6.52255,6.39375 -13.56226,13.27236 -15.64379,15.28581 l -3.7846,3.66081 z"
     id="path1425"
     inkscape:connector-curvature="0" />
  <path
     style="fill:#006cb7;fill-opacity:1;stroke:none;stroke-width:0.25"
     d=""
     id="path1427"
     inkscape:connector-curvature="0" />
  <path
     style="fill:#006cb7;fill-opacity:1;stroke:none;stroke-width:0.25"
     d="m 329.24847,271.11197 c -0.16708,-0.20131 -0.17889,-0.45275 -0.0322,-0.68475 0.1965,-0.31068 0.23246,-0.30305 0.2357,0.0501 0.002,0.22916 0.13891,0.46169 0.30402,0.51672 0.20924,0.0697 0.21782,0.15097 0.0283,0.26808 -0.14952,0.0924 -0.39067,0.0249 -0.53588,-0.15011 z"
     id="path1437"
     inkscape:connector-curvature="0" />
  <path
     style="fill:#006cb7;fill-opacity:1;stroke:none;stroke-width:0.25"
     d="m 424.58013,211.93561 c 0,-95.49375 0.0284,-134.55938 0.0632,-86.8125 0.0348,47.74687 0.0348,125.87812 0,173.625 -0.0348,47.74687 -0.0632,8.68125 -0.0632,-86.8125 z"
     id="path1439"
     inkscape:connector-curvature="0" />
  <path
     style="fill:#006cb7;fill-opacity:1;stroke:none;stroke-width:0.25"
     d="m 424.57957,212.31061 c 0,-53.4875 0.0287,-75.33147 0.0638,-48.54214 0.0351,26.78932 0.0351,70.55182 0,97.25 -0.0351,26.69817 -0.0638,4.77964 -0.0638,-48.70786 z"
     id="path1441"
     inkscape:connector-curvature="0" />
  <path
     style="fill:#ffffff;fill-opacity:1;stroke:none"
     d="M 40.37548,211.63687 V 41.136872 h 172.5 172.5 v 170.499998 170.5 h -172.5 -172.5 z m 269.81004,97.91302 c 16.05448,-15.72284 29.18996,-28.96095 29.18996,-29.41802 0,-0.85773 -7.99351,-9.4281 -42.75,-45.83506 -11.1375,-11.66638 -20.25,-21.85158 -20.25,-22.63377 0,-0.78219 14.175,-15.79109 31.5,-33.35312 17.325,-17.56203 31.5,-32.34005 31.5,-32.84005 0,-0.5 -13.28994,-14.14951 -29.53321,-30.33225 L 280.30906,85.714463 246.91243,119.09993 213.5158,152.4854 180.51868,119.06114 147.52157,85.636872 l -29.9947,29.915438 -29.994703,29.91544 29.850173,30.58456 c 16.4176,16.82151 30.81855,31.82657 32.00212,33.34458 l 2.15194,2.76002 -2.70868,3.23998 c -1.48977,1.78199 -15.92598,16.88468 -32.08046,33.56154 -16.15448,16.67685 -29.37178,30.66679 -29.37178,31.08875 0,1.65075 58.51666,57.08969 60.25905,57.08969 0.56264,0 14.34701,-13.16539 30.63196,-29.25642 16.28494,-16.09104 31.04645,-30.27885 32.80334,-31.52847 l 3.19434,-2.27204 20.80566,19.93424 c 11.44311,10.96383 26.19862,25.37664 32.79002,32.02846 6.5914,6.65183 12.24342,12.09423 12.56004,12.09423 0.31662,0 13.71116,-12.86414 29.76563,-28.58698 z"
     id="path873"
     inkscape:connector-curvature="0" />
</svg>
